<svg width="26" height="26" viewBox="0 0 26 26" fill="none" xmlns="http://www.w3.org/2000/svg">
<path d="M13.5147 15.6897V7.284H10.5218V15.6881C9.47201 16.2505 8.74547 17.3721 8.74547 18.6775C8.75837 19.565 9.10892 20.4117 9.72142 21.0347C10.3339 21.6576 11.1592 22.0069 12.019 22.007C12.8788 22.0071 13.7042 21.658 14.3168 21.0352C14.9295 20.4124 15.2802 19.5658 15.2933 18.6783C15.2933 17.3728 14.5675 16.2513 13.5155 15.6905L13.5147 15.6897ZM15.7595 4.6747C15.7595 2.54585 14.0804 0.8125 12.0183 0.8125C9.95612 0.8125 8.27707 2.54663 8.27707 4.6747V14.5055C7.71652 15.0353 7.269 15.6798 6.96304 16.3979C6.65708 17.1161 6.49939 17.8922 6.5 18.6767C6.5 21.8175 8.97667 24.375 12.019 24.375C15.0614 24.375 17.5373 21.8182 17.5373 18.6767C17.5373 17.0654 16.8803 15.5638 15.7602 14.504V4.67624L15.7595 4.6747ZM16.0401 18.679C16.0387 19.7795 15.6144 20.8345 14.8604 21.6124C14.1064 22.3904 13.0843 22.8278 12.0183 22.8286C10.9524 22.8271 9.93067 22.3894 9.17702 21.6114C8.42337 20.8334 7.99936 19.7786 7.99798 18.6783C7.99798 17.2917 8.6684 16.0187 9.77579 15.2502V4.67624C9.77579 3.3994 10.7807 2.35892 12.0183 2.35892C13.2559 2.35892 14.263 3.39863 14.263 4.67624V15.2509C14.8096 15.627 15.2578 16.1366 15.5679 16.7345C15.8779 17.3324 16.0401 18.0009 16.0401 18.679ZM16.9454 7.284L20.3125 9.2908V5.27875L16.9454 7.284Z" fill="#00FCB6"/>
</svg>
